Exact Audio Copy V0.99 prebeta 1 from 25. May 2007

EAC 抓取日志文件从15. 十月 2010, 19:14

杨洪基 / 20世纪中华歌坛名人百集珍藏版

使用驱动器  ：BENQ    DVD-ROM 16X   Adapter: 0  ID: 1

读取模式     : 保护
使用精确流   : 是
废除音频缓冲 : 是
使用 C2 指针 : 否

读取偏移校正                   : 738
读取 Lead-In 和 Lead-Out       : 否
用静音填充抓取中丢失偏移的采样 : 是
去除首尾静音块                 : 否
已用接口                       : 已安装外部 ASPI 接口

所用输出格式 : 内部 WAV 函数
样本格式     : 44.100 Hz;16 Bit;立体声


被抓轨 CD 的 TOC

     音轨 |   开始   |   长度   | 起始扇区 | 结尾扇区 
    --------------------------------------------------
       1  |  0:00.00 |  4:31.69 |       0  |   20393  
       2  |  4:31.69 |  3:00.01 |   20394  |   33894  
       3  |  7:31.70 |  4:27.57 |   33895  |   53976  
       4  | 11:59.52 |  3:23.30 |   53977  |   69231  
       5  | 15:23.07 |  3:40.43 |   69232  |   85774  
       6  | 19:03.50 |  2:17.22 |   85775  |   96071  
       7  | 21:20.72 |  3:04.25 |   96072  |  109896  
       8  | 24:25.22 |  2:41.00 |  109897  |  121971  
       9  | 27:06.22 |  2:49.58 |  121972  |  134704  
      10  | 29:56.05 |  2:17.67 |  134705  |  145046  
      11  | 32:13.72 |  3:09.25 |  145047  |  159246  
      12  | 35:23.22 |  4:07.60 |  159247  |  177831  
      13  | 39:31.07 |  1:37.03 |  177832  |  185109  
      14  | 41:08.10 |  3:46.70 |  185110  |  202129  
      15  | 44:55.05 |  3:01.70 |  202130  |  215774  
      16  | 47:57.00 |  2:41.10 |  215775  |  227859  
      17  | 50:38.10 |  4:04.60 |  227860  |  246219  


范围状态及错误

已选择范围

     文件名 E:\文件夹\20世纪中华歌坛名人百集珍藏版-杨洪基[lwg188原创]\杨洪基 - 20世纪中华歌坛名人百集珍藏版.wav

     峰值电平 100.0 %
     范围质量 100.0 %
     复制 CRC 4CFFF36A
     复制成功

没有错误发生

状态报告结尾
